<mxfile host="app.diagrams.net" modified="2024-05-19T09:24:15.378Z" agent="Mozilla/5.0 (Windows NT 10.0; Win64; x64) AppleWebKit/537.36 (KHTML, like Gecko) Chrome/124.0.0.0 Safari/537.36" version="24.4.4" etag="hFrLaVUKtYo4DnkRABzy" type="github">
  <diagram name="Page-1" id="jdECkMy2rMXvg7Pw2sKv">
    <mxGraphModel>
      <root>
        <mxCell id="0" />
        <mxCell id="1" parent="0" />
      </root>
    </mxGraphModel>
  </diagram>
</mxfile>
